<svg xmlns="http://www.w3.org/2000/svg" viewBox="0 0 968.53 968.53"><defs><style>.cls-1,.cls-2{fill:#fff;}.cls-2{fill-rule:evenodd;}</style></defs><g id="Layer_2" data-name="Layer 2"><g id="Layer_1-2" data-name="Layer 1"><path class="cls-1" d="M884.15,482.38q12.9-1.12,19.28-8a17.47,17.47,0,0,0,4.41-8.6c.67-3.18.75-7.56.26-13.1a52.71,52.71,0,0,0-1.33-8.24q-5.25,0-25.27,1.74l-20.33,1.88a89.09,89.09,0,0,0-9,1.15,53.09,53.09,0,0,0,.09,8.45c.54,6.16,1.85,11,4,14.38q3.43,5.52,10.77,8.3a38.56,38.56,0,0,0,17.14,2m3.49,14.09q-15.78,1.38-27.07-8a34.46,34.46,0,0,1-8.93-11.5,46.92,46.92,0,0,1-4.41-17.67l-1.15-16.45q-.5-6.72-1.26-11.06l.44-.51,1.3-.12.58.19c1.66,2.16,2.68,3.34,3.07,3.48.58.24,2.67.23,6.23,0l10.45-.77,23.6-2.07c7.38-.65,12.18-1.26,14.37-1.86a2.08,2.08,0,0,0,1.6-1.73c.06-.49.06-2.31,0-5.49l.42-.5,3.16-.27.47.42q.15,5,.54,9.43.94,10.85,2,19.52c.34,2.88.65,5.77.9,8.69.71,8.07.32,14.33-1.13,18.82a23.62,23.62,0,0,1-8.53,11.9C900.08,494,894.52,495.87,887.64,496.47Zm17.54-91.72-.59-.38c-1.06-3-1.72-4.71-2-5.12a2.07,2.07,0,0,0-2.12-1.05q-3.37.35-14.08,3.41l-18.23,5.22Q848,412.62,842.1,415l-.59-.46c-.4-3.55-.72-6.23-1-8q10.07-15.9,37.53-55.25l-29.37,8.42q-10.7,3.08-13.76,4.58a2,2,0,0,0-1.21,2,48.84,48.84,0,0,0,1,5.39l-.32.57-3.05.87-.54-.32q-1.22-5.26-2.48-9.69-1.47-5.18-3.25-10.31l.28-.56,3.06-.88.57.32a50.47,50.47,0,0,0,2,5.13,2,2,0,0,0,2.09,1.06c2.28-.24,7-1.37,14.09-3.41L871,347.58q10.69-3.07,13.75-4.58a2,2,0,0,0,1.23-2q0-.72-1.06-5.39l.32-.57,3-.88.54.33c.63,2.9,1.32,5.63,2.06,8.21q1.73,6.06,3.16,10Q877.07,375,858.67,403.93l26.27-7.54q10.69-3.06,13.76-4.57a2,2,0,0,0,1.23-2q0-.71-1.06-5.36l.32-.59,3-.88.55.34q1.17,5.1,2.47,9.65c1.11,3.87,2.19,7.3,3.26,10.33l-.28.58Zm-72.95-95.92,16.93-20.32-26.12,3q1.68,3.46,4.55,8.87Q830.38,305.65,832.23,308.83Zm-8.29,38-.61-.14c-3.08-6.21-5-9.93-5.63-11.2q-4-7.57-7.76-14l.23-.59,2.6-1.38.68.16,2.1,3.49c.89,1.46,1.82,1.94,2.81,1.41a17.11,17.11,0,0,0,3.28-3.22l6.92-8c-2-3.84-4-7.73-6.11-11.7q-1.69-3.21-5.17-9.51l-6,.85q-6.84,1-8.28,1.75c-1,.55-1.31,1.53-.82,2.93a47.82,47.82,0,0,0,1.91,4.39l-.21.63-2.63,1.4-.64-.18q-3.79-7.77-5-9.95c-.59-1.13-2.17-3.89-4.7-8.25l.16-.61,2.68-1.42.65.22c1.67,2.75,3.15,4.18,4.47,4.31s8.33-.47,21.06-1.86l32.67-3.55L864,281.45l3.12,5.86-39.82,49.22q-2.25,2.84-2.06,4.07a13.29,13.29,0,0,0,1.57,4.18l-.25.61Zm-31.65-91q10.9-8.82,1.63-20.26-1.17-1.46-2.78-3.23L774.32,246c-1.81,1.46-3.55,3-5.22,4.47a35.14,35.14,0,0,0,3.14,4.38q4.11,5.07,9.55,5.26C785.21,260.14,788.71,258.74,792.29,255.84Zm22.86-21.1q8-6.48,1.25-14.84a42.19,42.19,0,0,0-4.08-4.46c-2.61,2-5,3.82-7.17,5.56l-10,8.11q.6.9,2.63,3.41,5.31,6.57,11.21,5.23A15.07,15.07,0,0,0,815.15,234.74ZM802.42,266q-9.12,7.38-21.27,2.61-6-2.36-11.57-9.21-1.76-2.18-2.87-3.62L759.87,247c-2.51-3.1-4.53-5.45-6-7l.08-.68,1-.82.59-.16c2.58.86,4.08,1.27,4.49,1.16q.93-.19,5.15-3.51l8.22-6.48,18.41-14.91c5.77-4.66,9.41-7.85,10.88-9.58a2.05,2.05,0,0,0,.35-2.32c-.21-.44-1.23-2-3.08-4.55l.07-.65,2.47-2,.62.09q2.4,3.41,8.78,11.28,4,5,7.51,8.9,2.73,3.08,4.52,5.28,8.21,10.14,6.16,17a12.58,12.58,0,0,1-4.25,6.2,14,14,0,0,1-11.87,2.93,17.59,17.59,0,0,1-5.66-2,51.32,51.32,0,0,1-5.8-4Q813.95,256.71,802.42,266Zm-71.88-50.49-.64.09q-3.39-3.23-10.87-9.5c-5-4.16-8.71-7.17-11.21-9l0-.64,2-2.4.66,0a50.84,50.84,0,0,0,4.49,3.14,2,2,0,0,0,2.33-.3q2.63-2.19,9.77-10.7L743,167.22c4.77-5.68,7.72-9.52,8.85-11.48a2,2,0,0,0-.11-2.36q-.42-.57-3.88-3.86l-.07-.66,2-2.44.65,0q3.24,3.1,10.83,9.47t11.17,9l.09.64-2,2.43-.67,0q-3.82-2.83-4.47-3.15a2,2,0,0,0-2.34.31q-2.61,2.18-9.77,10.7l-15.89,18.94q-7.15,8.52-8.85,11.49a2,2,0,0,0,.11,2.34,50,50,0,0,0,3.88,3.87l.07.67Zm-15.85-45.78L714,170c-1.92-.53-3.23-.51-3.88.06s-2.36,3.25-5,8.05q-1.92,3.48-3.47,7-16.5-2.41-27.63-8.58-14.62-8.12-19.13-21.33t3.33-27.35q10.2-18.42,30.53-17.42,9.33.47,20.6,6.71A73.06,73.06,0,0,1,721.82,126a47.43,47.43,0,0,1,7.21,7.53l0,.93q-3,3-8.69,11.54l-.67.15-2.45-1.36-.18-.63c.28-.51.82-1.62,1.61-3.3a26.91,26.91,0,0,0,1.48-3.64c-.29-2.3-1.57-4.81-3.82-7.57a31.72,31.72,0,0,0-9.07-7.36q-14.46-8-26.45.6A33.3,33.3,0,0,0,671.27,134q-6.3,11.35-4.39,22.2A23,23,0,0,0,679,173a27.83,27.83,0,0,0,11.6,3.44c1.25-1.81,2.79-4.36,4.63-7.68a28.59,28.59,0,0,0,2.45-5.07c.07-.52-.28-1.13-1-1.8s-2.82-2-6.57-4.44l-.21-.67,1.42-2.56.67-.16c3.91,2.29,8,4.62,12.37,7l11.3,6.12.18.63Zm-83.26-54.28q4.19-12.89,1.47-22.15t-12.71-12.5Q607,76.54,598.82,87a41.83,41.83,0,0,0-6.65,12.91q-4.47,13.74-2,23.34,2.56,9.92,13,13.32,12.67,4.11,21.08-7A47.46,47.46,0,0,0,631.43,115.48Zm14.44,2.14Q640.55,134,628,140.25q-12.24,6.06-28.33.82-15.2-4.94-21.08-16.31t-.95-26.62q6.95-21.36,25.94-24.29,8.64-1.32,19.48,2.2,15.5,5,21.5,16T645.87,117.62Zm-83.4-6a104.39,104.39,0,0,0-2.89,15.19l-.54.41-33.68-4.42q-8.43-1-11.94-1.18l-.42-.53.16-1.3.31-.52c2.46-1.18,3.82-1.93,4-2.29.35-.52.78-2.55,1.26-6.1l1.42-10.38L523.08,77c.9-7.36,1.3-12.18,1.16-14.45a2,2,0,0,0-1.36-1.91c-.46-.17-2.24-.55-5.37-1.13l-.4-.52.39-3.15.51-.37q4.74.87,14,2c6.37.78,11.23,1.28,14.55,1.5l.41.48-.39,3.2L546,63c-3.19-.2-5-.26-5.49-.21a2.05,2.05,0,0,0-1.79,1.53q-1,3.25-2.37,14.31L533,106.36c-.49,4.06-.9,8-1.2,11.81l6.3.77q13.53,1.66,16.74,1a1.54,1.54,0,0,0,.8-.43,8.48,8.48,0,0,0,1.23-2.66l1.81-5.63.53-.45,2.83.35ZM488.15,88.28q-.24-13.55-5.81-21.42t-16.09-7.68q-13.89.24-18.2,12.79A41.93,41.93,0,0,0,446,86.35q.25,14.45,5.72,22.71,5.65,8.55,16.64,8.36Q481.67,117.18,486,104A47.07,47.07,0,0,0,488.15,88.28Zm14.36-2.68q.3,17.25-9.58,27.22-9.58,9.72-26.51,10-16,.27-25.25-8.56t-9.55-24.86q-.4-22.47,16.61-31.41,7.74-4.06,19.14-4.26,16.28-.29,25.52,8.1T502.51,85.6Zm-92.7-23.15-.39.59c-3,1-4.73,1.63-5.15,1.85a2.07,2.07,0,0,0-1.09,2.1q.3,3.39,3.17,14.14l4.9,18.32q5.43,20.26,7.67,26.25l-.48.57c-3.56.35-6.24.62-8,.85q-15.73-10.34-54.59-38.49l7.91,29.52q2.88,10.74,4.33,13.83a2,2,0,0,0,2,1.25,47.31,47.31,0,0,0,5.41-.95l.57.33.81,3.06-.33.54q-5.26,1.11-9.73,2.31c-3.47.93-6.91,1.95-10.36,3.07l-.56-.3-.82-3.06.32-.57a49,49,0,0,0,5.17-1.88,2,2,0,0,0,1.09-2.07c-.2-2.28-1.24-7-3.16-14.15l-6.4-23.88q-2.88-10.74-4.33-13.83a2.05,2.05,0,0,0-2-1.27c-.48,0-2.29.33-5.4,1l-.57-.33-.82-3.06.33-.54c2.92-.58,5.65-1.21,8.24-1.91q6.11-1.63,10.05-3Q379.61,90,408.18,108.94l-7.07-26.4c-1.92-7.17-3.38-11.78-4.34-13.84a2.06,2.06,0,0,0-2-1.26q-.7,0-5.39,1l-.58-.32L388,65l.35-.54c3.41-.71,6.64-1.48,9.69-2.29,3.88-1,7.34-2.07,10.39-3.09l.57.3ZM351.27,143l-.2.64q-7,3.23-9.58,4.56c-1.56.8-4,2.13-7.24,4a31.84,31.84,0,0,0-7.28-3.7l-19.57-7.81a83.29,83.29,0,0,0-13-4l5.05,9.9q5,9.91,7.12,12.63a2,2,0,0,0,2.2.81,53.21,53.21,0,0,0,5.09-2.05l.62.2,1.42,2.78-.17.63q-4.29,1.86-12.95,6.27-9,4.56-12.68,6.79l-.61-.18-1.44-2.82.2-.63a49,49,0,0,0,4.66-2.91,2,2,0,0,0,.62-2.25c-.65-2.19-2.66-6.57-6-13.18l-11.23-22c-3.36-6.6-5.73-10.82-7.11-12.62a2.08,2.08,0,0,0-2.2-.84c-.47.12-2.17.81-5.08,2.08l-.62-.21-1.44-2.83.21-.59q4.11-1.77,12.95-6.28,9-4.61,12.69-6.78l.58.19,1.46,2.87-.22.58a52.17,52.17,0,0,0-4.66,2.89,2,2,0,0,0-.64,2.27c.66,2.17,2.66,6.57,6,13.18l5.26,10.34q4.1-11.22,5.68-16.43l2.8-9.14c1-3.14,2.06-7.36,3.37-12.62l-1.47-2.89.24-.64c2.24-.92,4.37-1.91,6.43-2.95q3.62-1.86,8.36-4.58l.63.19,1.32,2.59-.22.63c-3.21,1.63-5.33,3.38-6.37,5.2q-2.22,3.94-7.09,17.66l-4.35,12.28q3,1.51,9.46,4.15l14.85,6.07q16.5,6.77,18.5,6.69A10.11,10.11,0,0,0,349.2,140l.65.25Zm-75.67,22.6a104.69,104.69,0,0,0,8.7,12.79l-.08.67-27,20.69c-4.45,3.48-7.55,6-9.27,7.61l-.67-.09-.8-1-.16-.59c.9-2.57,1.34-4.06,1.24-4.47q-.21-1-3.41-5.21l-6.34-8.34L223.26,169q-6.84-8.76-9.39-11a2,2,0,0,0-2.31-.4c-.45.21-2,1.2-4.6,3l-.65-.08-2-2.5.11-.63q3.89-2.67,11.66-8.75,6.91-5.4,26.15-20.8h.64l2.72,4.46c.86,1.41,1.61,2.6,2.25,3.58l2.42,3.62-.06.69-2.13,1.66-.66-.07c-2.64-3.32-4.31-5.07-5-5.24-.54-.15-2.07.62-4.59,2.27s-4.67,3.18-6.46,4.59q-3.21,2.5-6.3,5.32c1.75,2.78,4.41,6.47,8,11l5.95,7.62c2-1.39,3.65-2.55,4.86-3.5l4.79-3.8c2.25-1.8,3.38-3,3.41-3.55.05-.75-1-2.6-3.11-5.57l.07-.66,2.29-1.79.65.1c2.05,2.81,4,5.37,5.76,7.65q2.91,3.72,6.5,8l-.11.61-2.47,1.93-.66-.07c-2.21-2.83-3.7-4.35-4.5-4.58s-2.27.36-4.41,1.75c-1.58,1-3.23,2.24-4.91,3.55s-3.43,2.77-4.88,4.1L251,182.71q3.77,4.83,7.49,9.21l5-3.91q10.75-8.4,12.53-11.15a1.63,1.63,0,0,0,.27-.87,8.51,8.51,0,0,0-1-2.75L272.62,168l.05-.69,2.25-1.76Zm-82.17,1.61a47.39,47.39,0,0,0,4.72,5.4l5.55,5.49,0,.67-2.05,2.12-.67.07a55.29,55.29,0,0,0-5.39-4.5,3.22,3.22,0,0,0-3.66.63c-.5.38-2.58,2.46-6.21,6.22l-4.35,4.5c.75.81,3.84,3.83,9.29,9.1l19.09,18.43c5.34,5.16,8.95,8.35,10.84,9.63A2,2,0,0,0,223,225a50.32,50.32,0,0,0,4.13-3.6l.67,0,2.24,2.17,0,.68q-3.42,3.12-10.2,10.15-6.94,7.2-9.79,10.55h-.61l-2.29-2.21v-.66a48.27,48.27,0,0,0,3.45-4.26,2,2,0,0,0-.13-2.34c-1.34-1.85-4.66-5.35-10-10.5l-19.09-18.43q-8.31-8-9.45-8.93l-4.64,4.81q-5.81,6-6.41,7.37a2.09,2.09,0,0,0-.21,1.22,8.93,8.93,0,0,0,1.67,2.59c1,1.3,2.15,2.59,3.36,3.84l0,.67-2.06,2.12-.69,0-5.82-5.48a53.72,53.72,0,0,0-5.39-4.43l-.06-.63Q154,208.07,166,195.6L179.15,182q11.1-11.49,13.62-14.79Zm-66.36,77.39a48.06,48.06,0,0,0,5.89,4.1l6.7,4,.19.64-1.48,2.56-.62.22a58.17,58.17,0,0,0-6.32-3.06,3.24,3.24,0,0,0-3.41,1.5q-.59.73-4.52,7.54l-3.12,5.41q1.38.91,11.2,6.59l23,13.27q9.65,5.55,12.84,6.71a2,2,0,0,0,2.3-.52,51,51,0,0,0,3.14-4.48l.64-.19,2.71,1.57.17.65q-2.55,3.85-7.44,12.32-5,8.66-7,12.6l-.59.16-2.74-1.59-.16-.64a49.2,49.2,0,0,0,2.31-5,2,2,0,0,0-.7-2.24q-2.61-2.2-12.23-7.77l-23-13.27q-10-5.78-11.33-6.37l-3.34,5.79q-4.17,7.23-4.44,8.7a2.09,2.09,0,0,0,.1,1.24,8.87,8.87,0,0,0,2.24,2.11c1.31,1,2.72,2,4.19,2.91l.19.64L111,303.25l-.67.2-7-3.91a52.44,52.44,0,0,0-6.3-3l-.21-.6q1.8-2.18,10.47-17.17l9.46-16.39q8-13.84,9.64-17.65Zm-34.26,68,.27.6q-1.78,5.21.78,6.83a46.45,46.45,0,0,0,6.53,2.84q3.8,1.46,11,3.95L125,331.46q13.12,4.52,17,11.62,5.07,9.42.7,22.09-4,11.58-10.07,16.74a16.16,16.16,0,0,1-11.74,4q-4.22-.25-20.42-5.85l-11.4-3.93q-10.53-3.62-13.9-4.14a2.07,2.07,0,0,0-2.16.94c-.25.41-1,2.07-2.22,5l-.58.31-3-1-.29-.6q1.73-4.14,5-13.51,3.28-9.56,4.39-13.65l.6-.31,3,1,.28.6c-.85,3.06-1.29,4.84-1.34,5.32a2,2,0,0,0,1.13,2.06c2,1.12,6.48,2.88,13.49,5.29l9.09,3.13q16.72,5.76,21,5.56,8.44-.47,12.51-12.26c1.78-5.16,1.9-9.6.36-13.37a11.16,11.16,0,0,0-2.7-4.08,22.41,22.41,0,0,0-5.32-3.22,68,68,0,0,0-7.19-2.93l-9.2-3.17c-7.7-2.65-13-4.44-15.83-5.35a21.75,21.75,0,0,0-5.35-1.25,2.75,2.75,0,0,0-1.91,1.08,26,26,0,0,0-2.53,5.2l-.6.3-3-1-.28-.6c1.06-2.51,2.06-5.1,3-7.81q1.06-3.06,3.76-11.8l.6-.3Zm-29.2,80.09a47.83,47.83,0,0,0,7,1.6l7.71,1.18.41.52-.41,2.92-.5.45a55.37,55.37,0,0,0-7-.47,3.25,3.25,0,0,0-2.6,2.66q-.27.92-1.37,8.69L66,416.38c1.09.22,5.36.85,12.86,1.9l26.29,3.7c7.34,1,12.14,1.49,14.42,1.41a2,2,0,0,0,1.93-1.34,50.18,50.18,0,0,0,1.23-5.33l.53-.41,3.09.43.41.54q-.93,4.55-2.28,14.21-1.41,9.9-1.72,14.29l-.49.36-3.14-.44-.39-.54a47.45,47.45,0,0,0,.28-5.47,2,2,0,0,0-1.48-1.81q-3.26-1.06-14.26-2.62L77,431.57c-7.64-1.08-11.92-1.63-12.89-1.67l-.94,6.62q-1.16,8.26-.85,9.74a2.1,2.1,0,0,0,.55,1.1,9.11,9.11,0,0,0,2.87,1.12c1.6.45,3.27.82,5,1.13l.41.53-.41,2.92-.55.44-7.92-1a53.78,53.78,0,0,0-7-.42l-.42-.47q.85-2.68,3.27-19.84L60.75,413q2.22-15.83,2.32-20ZM120.12,466l.46.45q-.45,4.65-.79,14.42t-.22,14.39l-.49.41-3.12-.11-.45-.49a46.72,46.72,0,0,0-.29-5.47,2,2,0,0,0-1.66-1.66c-2.24-.47-7-.85-14.45-1.11L74.4,486q-11.13-.39-14.5.1a2,2,0,0,0-1.79,1.53q-.2.69-.65,5.44l-.48.46-3.17-.11-.42-.5q.45-4.45.79-14.36c.23-6.57.3-11.36.21-14.34l.45-.47,3.18.11.44.5q.12,4.77.27,5.46a2.05,2.05,0,0,0,1.68,1.66q3.33.72,14.46,1.11l24.7.87q11.12.38,14.5-.11a2,2,0,0,0,1.77-1.53,47.43,47.43,0,0,0,.67-5.43l.48-.47Zm-65.73,42.2a47,47,0,0,0,7.17-.27l7.75-.85.53.4.37,2.92-.37.57A55,55,0,0,0,63,512.34a3.24,3.24,0,0,0-1.82,3.24c0,.63.29,3.55.93,8.74l.76,6.21q1.65-.1,12.92-1.49l26.34-3.24q11-1.35,14.3-2.36a2,2,0,0,0,1.52-1.8,53.48,53.48,0,0,0-.2-5.47l.4-.53,3.11-.38.53.41q.29,4.62,1.47,14.32c.81,6.62,1.5,11.37,2,14.25l-.38.48-3.14.38-.52-.42a51.46,51.46,0,0,0-1.14-5.35,2,2,0,0,0-1.9-1.38c-2.29-.12-7.1.26-14.45,1.17l-26.35,3.23q-11.46,1.41-12.89,1.73l.82,6.63c.68,5.53,1.25,8.74,1.69,9.63a2.21,2.21,0,0,0,.83.93,9.34,9.34,0,0,0,3.06.33c1.66,0,3.37-.05,5.1-.2l.53.4.36,2.94-.41.56-7.92,1.07a53,53,0,0,0-6.84,1.4l-.52-.35q.14-2.82-2-20L56.9,528.62Q55,512.75,54,508.73Zm54.22,62.91a22,22,0,0,1,14.28.73,22.85,22.85,0,0,1,10,7.71,35.71,35.71,0,0,1,5.78,12.52,44.48,44.48,0,0,1,.66,19.76l-.86.81a68.8,68.8,0,0,0-15.1,2.69l-.56-.33-.78-2.88.34-.53,1-.28A55.24,55.24,0,0,0,130,609a13.29,13.29,0,0,0,3.4-7.16,20.89,20.89,0,0,0-.27-9.7q-2.38-8.93-9.53-10.69a14.07,14.07,0,0,0-7.12,0c-3.85,1-6.17,3.39-7,7a28,28,0,0,0,0,8.26q1.38,12.54-.41,17.09-2.69,6.87-11.59,9.25-9.25,2.48-16.42-2.27-7.55-5-10.69-16.79-2.83-10.56-1.18-18l1-.6a80.92,80.92,0,0,0,13.26-2.16l.58.39.76,2.83-.32.58a52.47,52.47,0,0,0-6.92,2.34,11,11,0,0,0-2.32,5.84,20.63,20.63,0,0,0,.55,8.12c1.08,4,3,6.94,5.77,8.71a10.47,10.47,0,0,0,8.69,1.21q5.18-1.4,6.62-5.79.91-2.85-.06-12.32c-.08-.65-.26-2.49-.51-5.53a25.69,25.69,0,0,1,0-5.26,14.07,14.07,0,0,1,3.39-8.26A17.77,17.77,0,0,1,108.61,571.12ZM89.07,647.05l.65.26c1.61,2.74,2.58,4.29,2.89,4.65a2.06,2.06,0,0,0,2.27.63q3.25-1,13.18-6L125,638q18.69-9.54,24.08-13l.66.35c1.08,3.41,1.9,6,2.51,7.69q-6.86,17.54-26.31,61.4l27.23-13.88q9.92-5,12.63-7.11a2,2,0,0,0,.81-2.21,49.67,49.67,0,0,0-2.06-5.09l.21-.62,2.82-1.44.6.21q2.19,4.94,4.28,9.05,2.45,4.78,5.16,9.49l-.17.6-2.83,1.45-.62-.21a52.17,52.17,0,0,0-2.91-4.65,2,2,0,0,0-2.26-.64c-2.19.66-6.57,2.66-13.18,6l-22,11.23q-9.92,5-12.63,7.11a2.07,2.07,0,0,0-.83,2.21c.12.46.8,2.17,2.08,5.09l-.21.62-2.82,1.44-.6-.22c-1.17-2.73-2.36-5.27-3.58-7.66q-2.86-5.62-5-9.21,12.36-25.17,24.9-57l-24.36,12.41q-9.92,5.05-12.62,7.11a2,2,0,0,0-.83,2.21c.11.46.79,2.16,2.06,5.07l-.19.64-2.83,1.44-.6-.23c-1.41-3.18-2.83-6.19-4.26-9q-2.75-5.37-5.18-9.52l.17-.62Zm94.05,41.39.63.08q2.44,4,8.05,12c3.71,5.3,6.54,9.19,8.49,11.62l-.15.63-2.56,1.79-.65-.12a52,52,0,0,0-3.52-4.2,2,2,0,0,0-2.33-.32c-2.07,1-6.14,3.56-12.21,7.82L158.62,731.9q-9.12,6.39-11.52,8.81a2.06,2.06,0,0,0-.51,2.3q.25.68,2.75,4.74l-.1.66-2.6,1.81-.63-.14q-2.32-3.84-8-12t-8.46-11.58l.08-.64,2.6-1.82.65.13q3,3.72,3.51,4.2a2.05,2.05,0,0,0,2.34.31q3.09-1.44,12.21-7.81l20.25-14.18q9.12-6.39,11.52-8.81a2,2,0,0,0,.5-2.29,50.9,50.9,0,0,0-2.74-4.75l.11-.65Z"/><path class="cls-1" d="M790.38,726l-.21-.68c.64-1.88.68-3.19.15-3.87s-3.13-2.52-7.78-5.43c-2.25-1.4-4.53-2.68-6.86-3.83q3.29-16.35,10-27.15,8.87-14.18,22.29-18t27.15,4.75q17.85,11.16,15.79,31.41-.95,9.29-7.78,20.21a72.56,72.56,0,0,1-9.4,12,47.28,47.28,0,0,1-7.9,6.8l-.93-.09q-2.83-3.21-11.06-9.29l-.13-.67,1.49-2.38.64-.15c.5.31,1.58.91,3.21,1.78a28.72,28.72,0,0,0,3.56,1.68c2.31-.18,4.89-1.33,7.77-3.42a32.24,32.24,0,0,0,7.82-8.67q8.76-14,.79-26.45a33.56,33.56,0,0,0-10.6-10q-11-6.88-21.95-5.54A23,23,0,0,0,789,690.11a27.77,27.77,0,0,0-4,11.41q2.61,2,7.43,5a27.54,27.54,0,0,0,4.93,2.71c.52.1,1.14-.21,1.86-1s2.19-2.71,4.78-6.32l.67-.19,2.49,1.56.12.68c-2.49,3.78-5,7.76-7.64,12q-2.24,3.68-6.7,11l-.64.15Zm79-56-.24-.66c1-3,1.46-4.78,1.52-5.25a2,2,0,0,0-1-2.11q-2.91-1.77-13.3-5.76l-17.71-6.8q-19.59-7.51-25.74-9.23l-.18-.72c1.81-3.08,3.17-5.41,4-7q17.61-6.63,63.23-21.53l-28.54-11c-6.92-2.66-11.49-4.19-13.74-4.63a2,2,0,0,0-2.17.87,49.79,49.79,0,0,0-2.41,4.94l-.6.27-3-1.14-.24-.59q2.21-4.92,3.86-9.23,1.92-5,3.6-10.18l.56-.28,3,1.13.26.6a53,53,0,0,0-1.51,5.28,2,2,0,0,0,1,2.11c2,1.17,6.38,3.1,13.3,5.75l23.08,8.86q10.38,4,13.74,4.63a2,2,0,0,0,2.19-.87c.27-.39,1.08-2,2.4-4.94l.59-.26,3,1.13.23.59c-1.24,2.7-2.33,5.29-3.3,7.79-1.5,3.93-2.67,7.22-3.48,9.88q-27,7.67-59.06,19.67l25.52,9.8q10.39,4,13.74,4.62a2,2,0,0,0,2.19-.87q.4-.59,2.39-4.92l.6-.28,3,1.13.23.61q-2.15,4.75-3.84,9.18-2.16,5.63-3.61,10.22l-.58.29ZM899.21,585l-.37-.55q.95-5.43-1.83-6.62a44.42,44.42,0,0,0-6.89-1.79c-2.66-.56-6.49-1.29-11.52-2.17l-14.18-2.5q-13.67-2.42-18.56-8.83-6.48-8.5-4.15-21.71,2.13-12.06,7.33-18.11A16.1,16.1,0,0,1,860,517q4.2-.42,21.09,2.58L893,521.63c7.3,1.29,12.1,1.92,14.37,1.92a2.06,2.06,0,0,0,2-1.27q.28-.66,1.4-5.29l.54-.39,3.1.54.37.55q-1.07,4.37-2.78,14.12-1.76,9.95-2.21,14.17l-.54.4-3.09-.55-.37-.55c.36-3.16.51-5,.49-5.47A2.06,2.06,0,0,0,904.8,538q-3.19-1.19-14.16-3.11l-9.47-1.67q-17.42-3.06-21.59-2.2-8.28,1.77-10.45,14.06-1.41,8.06,1.74,13.26a11.05,11.05,0,0,0,3.31,3.61,22.94,22.94,0,0,0,5.75,2.35A71.87,71.87,0,0,0,867.5,566l9.57,1.69q12,2.12,16.48,2.8a21.57,21.57,0,0,0,5.49.41,2.8,2.8,0,0,0,1.71-1.37,26.43,26.43,0,0,0,1.69-5.53l.54-.39,3.1.54.36.55c-.66,2.64-1.23,5.35-1.73,8.18-.37,2.13-1,6.21-1.86,12.24l-.55.39Z"/><path class="cls-2" d="M235.2,771.59a17.08,17.08,0,1,1-17.08,17.08,17.08,17.08,0,0,1,17.08-17.08"/><path class="cls-2" d="M733.33,771.59a17.08,17.08,0,1,1-17.07,17.08,17.09,17.09,0,0,1,17.07-17.08"/><path class="cls-1" d="M525,327.44h16.6c-1.29-28-4.57-35.79-29.93-47.92C524.78,294,525.08,305.76,525,327.44Z"/><polygon class="cls-1" points="485.81 339.27 493.26 331.61 485.81 324.15 478.25 331.61 485.81 339.27"/><path class="cls-1" d="M618.53,375.75c-11.33-4.57-27.44-16.8-39.07-29.92-7.66-8.65-16.9-8.45-27.44-8.25,1.49,16.1.6,32.21-5.67,44.43,20.28,5.77,30.73,9.95,48.72,19.09C610.08,395.44,627.08,382.51,618.53,375.75Z"/><path class="cls-1" d="M504.3,327.44h10.54c-.6-36-7.26-46.23-23.56-56.47,0,26.54-.9,42.65,4.17,51.49C497.94,325.45,500.22,326.44,504.3,327.44Z"/><path class="cls-1" d="M607.89,326l11.63-9c3.88-3.88,0-8.45-4.07-6.17L603,320.58C599.24,323.86,603.91,329.32,607.89,326Z"/><path class="cls-1" d="M583.83,324.35a15,15,0,0,0,1.69,13.82c7.66,6.46,15.41,18.89,25.46,24,4.57,1.29,15.4-1.49,18.49-4.87-4-1-8.36-.6-7.36-6.56-5.37,3.08-10.64-3.68-8.75-8.65-3.18,1.49-12.43-2.29-9-9.64-6.86,2.09-10.15-3.58-9.05-8.45,1.79-7.86,12.72-9.35,9.74-18.89C597.15,310.14,591.39,317.2,583.83,324.35Z"/><path class="cls-1" d="M591.09,304l-11.23-15.11c16.8-12.53,36.58-8.95,44.73-4.17-2.78-26.94-22.37-37.58-34.09-41.16,1.39,15.81-1.89,28.23-15.41,39.37l-12.63-14.32-5,4,28.83,35.89Z"/><path class="cls-1" d="M616.54,335.19,628.18,326c3.87-3.87,0-8.35-4.08-6.16l-12.43,9.74C607.89,332.9,612.56,338.27,616.54,335.19Z"/><path class="cls-1" d="M436.3,430.33l6.86,4.58,13.12-14.12a13.33,13.33,0,0,0-7.55-12Z"/><path class="cls-1" d="M409.36,582.74c3-12.13,16.8-45,35.49-58.86C458,512.45,473.38,505,488.79,496.64l-10.34-4.57c-9.84,3.28-17.79,7.46-26.34,12.33-19.89,10.93-51.7,42.15-52.59,74C402.9,581.25,405.58,583,409.36,582.74Z"/><path class="cls-1" d="M393.55,316.9l.1-12c-.8-5.67-8.15-6.27-8.45.1V316.4C386.69,323.06,392.36,322.86,393.55,316.9Z"/><path class="cls-1" d="M468.31,327.44c4.08-1,6.27-2,8.85-5,5-8.84,4.08-24.95,4.08-51.49-16.21,10.24-22.87,20.48-23.47,56.47Z"/><path class="cls-1" d="M461,279.52C435.5,291.65,432.32,299.4,431,327.44h16.6C447.43,305.76,447.73,294,461,279.52Z"/><path class="cls-1" d="M463.84,411.14c6.66,19.09-2.59,42.65,6.46,61.15,21.57,27.93,68.1,21.77,73.67,40.16l21.37.1c.1-23.37-24.06-30.12-34.8-30.23s-28.13-6.46-32.8-18.19c-3.28-8.15-5.17-39.27,5.76-54.77,11.34-12.53,27-19.49,34.5-34.2,4-12.53,5.27-25.85,3.19-36.89H511.36c-18.79,0-25.55,8.85-25.55,14,0-5.17-6.06-14-24.36-14H430.53c-1.79,15.11,0,28.14,4.38,37C446.64,400.21,455.29,395.14,463.84,411.14Zm42.25-57.36c3-1,14.81-.69,20-.69.2,3.37-2.08,8.25-5.17,10.44-5.27,2.58-14.11,2.58-21.77,2.08C498.64,361.54,501.62,354.78,506.09,353.78Zm-40.06,0c4.47,1,7.35,7.76,7,11.83-7.75.5-16.5.5-21.77-2.08a14.18,14.18,0,0,1-5.27-10.44C451.21,353.09,462.94,352.79,466,353.78Z"/><path class="cls-1" d="M403.79,504.89h-.2c-2,.4-3.48,1.5-5.37,3.68-6.36,4.38-1.69,13.32-7.65,18.3,4.57,2.48,4.37,11,.2,13.81,5.36,3.88,3.77,10.44-1.4,14,3.58,1.2,6,5.47,3,11.63C411.84,544.16,401.7,524.58,403.79,504.89Z"/><path class="cls-1" d="M557.49,541.58a7.17,7.17,0,0,0,7.16,7.06,7.09,7.09,0,0,0,7.06-7.06,7.18,7.18,0,0,0-7.06-7.16A7.26,7.26,0,0,0,557.49,541.58Z"/><path class="cls-1" d="M575.78,541.58a7.09,7.09,0,0,0,7.06,7.06,7.17,7.17,0,0,0,7.16-7.06,7.26,7.26,0,0,0-7.16-7.16A7.18,7.18,0,0,0,575.78,541.58Z"/><path class="cls-1" d="M380.92,316.9v-12c-.7-5.67-8.05-6.27-8.45.1V316.4C374.06,323.06,379.63,322.86,380.92,316.9Z"/><path class="cls-1" d="M538.7,541.58a7.08,7.08,0,0,0,7.06,7.06,7.17,7.17,0,0,0,7.15-7.06,7.26,7.26,0,0,0-7.15-7.16A7.18,7.18,0,0,0,538.7,541.58Z"/><path class="cls-1" d="M594.07,541.58a7.18,7.18,0,0,0,7.16,7.06,7.08,7.08,0,0,0,7.06-7.06,7.18,7.18,0,0,0-7.06-7.16A7.27,7.27,0,0,0,594.07,541.58Z"/><path class="cls-1" d="M545.06,522.19c.1,2,.5,5.07,2.49,6.17,3.38.1,6.16,2.08,8.35,4.77,3.78-6.56,12.33-6.06,17.69-.9,3.78-5,15.81-4.47,18.1,0,2.48-4.77,6.26-5,11-4.47,1-1.39,2.09-4.27,1.29-5.57Z"/><path class="cls-1" d="M485.41,698.46c-9-18-44.74-15.31-79.73-15.11-30.63.1-62.14,5.76-76.16-5.37,2,19.48,13.92,25.75,32.31,26.35,25.65.79,64.73-.3,85.7,1.78,21.88,2.19,29.23,5.57,37.88,16,8.55-10.44,15.91-13.82,37.78-16,21-2.08,60-1,85.7-1.78,18.39-.6,30.42-6.87,32.4-26.35-14,11.13-45.62,5.47-76.24,5.37C530.05,683.15,494.26,680.47,485.41,698.46Z"/><path class="cls-1" d="M624.69,344.14l11.64-9.05c3.87-4,0-8.45-4.08-6.26l-12.43,9.84C616.14,342,620.82,347.32,624.69,344.14Z"/><path class="cls-1" d="M537.8,476.06c14.32,2.89,30.13,12.73,33.81,30.63l1.69-57.57C582,459.46,580,488.49,580,512.55l35.09.2c-1.69,4.67.1,14.12-5.47,17.89,8.26,6.27,3.78,19.59-2.78,22.27-5.37,3.38-12,1.5-15.8-1.89-2.79,3.09-9.36,6.37-18,0-6.16,5.47-12,5.27-17.29-.79-2,3.28-6.27,3-8.46,3.38,5,13.72,26.16,26.54,42.76,20.08,37.18-14.71,45.23-44.44,43-85.4-1.79-32.81-18.1-68.3-58.56-87.78C574.89,424.37,551.32,468.11,537.8,476.06Z"/><path class="cls-1" d="M544.37,459.66c-4.38-.5-9.65-1.39-12.83-3.68-3,5.17-8.65,11.33-15.31,14.32,4.47,2.68,7,3,12.33,4C532.33,471.59,542.68,463.44,544.37,459.66Z"/><path class="cls-1" d="M633.24,352.49c4.58-2.29,7.06-3.58,9.45-8.15,3.78-6.07,1-9-3.09-6.17l-11.42,9.25C625.39,349.9,628.77,354.28,633.24,352.49Z"/><path class="cls-1" d="M539.1,392.36l-16.71,15.51c2.19,9.94,10,22,13.82,30.41,7.06-9.34,13-31.21,13-43.54l-10-2.38Z"/><path class="cls-1" d="M510.07,467.61c5.17-3,11.63-7.45,16.3-13.82a73.9,73.9,0,0,1-22.27-25C503.8,433.41,497,461,510.07,467.61Z"/><path class="cls-1" d="M566.73,398.72l-9.24-2.49c-1.2,17-8.65,35.89-17.6,47.42a45.39,45.39,0,0,0,7.46,12C553,446.14,569.32,419.59,566.73,398.72Z"/><path class="cls-1" d="M507.78,422.08c3.58,10.34,20,32.11,33.6,32.91-9.54-13-17.1-26.75-24.35-41.66C512.55,413.13,506.89,419.2,507.78,422.08Z"/><path class="cls-1" d="M458.27,577.86a7.07,7.07,0,0,0,0,14.13,7.07,7.07,0,1,0,0-14.13Z"/><path class="cls-1" d="M469.5,584.13c1,3.48,1.2,7.16-2.09,9.94,4.58,4.67,3.29,11.14-.49,15.91,4.47,4.27,4.28,13-.1,16.8,4.38,3.78,4.87,11-.4,16.2a11.23,11.23,0,0,1,3.58,8.26c8.55-10.74,8.35-28.24,8.35-34.2C478.35,613.36,478.65,593.57,469.5,584.13Z"/><path class="cls-1" d="M502.41,574c7.36-5.27,21.87-1.59,28,6.86,9.24,9.64,24.95,5.27,32.8,0-12.62-6.66-28.83-21.87-31.41-39.37,0-5.17,2.88-9.84,5.56-12.53l-1.48-13.12c-2.09-8.85-27.84-12.23-35.5-16.4C474.08,512.35,441.77,528,426.56,554c-4.08,6.47-5.87,23.37-6.57,29.83,6.77,1.49,13,2.59,20.58-3.87,10.44-9,20.78-10.34,27.64-6.27,9.65,1.79,14.32,14.42,16.8,23.27C488.49,584.72,490.28,582.54,502.41,574Zm-16.6-20.78a7.08,7.08,0,0,1-7.06-7.06,7.17,7.17,0,0,1,7.06-7.16,7.26,7.26,0,0,1,7.16,7.16A7.17,7.17,0,0,1,485.81,553.21Z"/><path class="cls-1" d="M826.44,142.12C738.73,54.4,617.65,0,484.3,0h-.11C350.86,0,229.82,54.4,142.12,142.09S0,350.88,0,484.23v.11C0,617.67,54.4,738.71,142.09,826.41S350.88,968.52,484.23,968.53h.11c133.32,0,254.38-54.4,342.07-142.09S968.52,617.65,968.53,484.3v-.11C968.51,350.86,914.13,229.82,826.44,142.12ZM951.3,484.26v0c0,128.6-52.47,245.36-137.07,330s-201.32,137-329.89,137h-.11c-128.59,0-245.36-52.47-330-137.07s-137-201.32-137-329.89v-.11c0-128.6,52.47-245.36,137.07-330s201.32-137,329.89-137h.11c128.6,0,245.36,52.47,330,137.07s137,201.32,137,329.89Z"/><path class="cls-1" d="M458.37,645.07a6.27,6.27,0,0,0,0,12.53,6.27,6.27,0,0,0,0-12.53Z"/><path class="cls-1" d="M458.27,628.17a7.06,7.06,0,0,0,0,14.12,7.06,7.06,0,1,0,0-14.12Z"/><path class="cls-1" d="M458.27,594.07a7,7,0,0,0-7,7.06,6.91,6.91,0,0,0,7,7,7.09,7.09,0,0,0,7.16-7A7.17,7.17,0,0,0,458.27,594.07Z"/><path class="cls-1" d="M502.21,626.78c-4.27-3.78-4.57-12.53-.09-16.8-3.79-4.77-5.08-11.24-.4-15.91-3.39-2.78-3.08-6.56-2.09-10-9.15,9.35-8.85,29.23-8.85,33,0,6,.6,23.56,9.15,34.29,0-3.08.39-6.06,2.78-8.35C497.44,637.81,497.94,630.56,502.21,626.78Z"/><path class="cls-1" d="M458.27,611.37a6.91,6.91,0,0,0-7,7,7.09,7.09,0,0,0,7,7.16,7.26,7.26,0,0,0,7.16-7.16A7.09,7.09,0,0,0,458.27,611.37Z"/><path class="cls-1" d="M615,568.82c-6,7.26-18.39,13.92-33.7,14.32-22.67,16-46.83,16.6-55.68,5.46-.49,3.19-2.58,4-4,5,4.17,3.68,4.67,11.64-.3,15.91,5.07,4.47,4.57,13.82-.3,17.3,4.77,4.47,4.57,11.63-.69,16.7,1.79.9,4.17,3.48,3.48,5.57,32.21-20.38,60.84,10.54,91.66,5.76C660.49,644.77,656.41,574,615,568.82Z"/><path class="cls-1" d="M484.27,156.55c-180.51,0-327.72,147.21-327.72,327.71S303.76,812,484.27,812,812,664.76,812,484.26,664.77,156.55,484.27,156.55Zm-62.39,110a7.17,7.17,0,0,1-7.06,7.16,7.26,7.26,0,0,1-7.16-7.16,7.18,7.18,0,0,1,7.16-7.06A7.08,7.08,0,0,1,421.88,266.59Zm1,18.1a7.17,7.17,0,0,1-7.16,7.06,7.08,7.08,0,0,1-7.06-7.06,7.17,7.17,0,0,1,7.06-7.16A7.26,7.26,0,0,1,422.88,284.69Zm-17.4-42.35a7.25,7.25,0,0,1,7.16,7.15,7.17,7.17,0,0,1-7.16,7.06,7.08,7.08,0,0,1-7.06-7.06A7.16,7.16,0,0,1,405.48,242.34Zm-16.6-8a7.18,7.18,0,0,1,7.16,7.06,7.26,7.26,0,0,1-7.16,7.16,7.17,7.17,0,0,1-7.06-7.16A7.08,7.08,0,0,1,388.88,234.38Zm-20.58-.79a7.26,7.26,0,0,1,7.15,7.16,7.17,7.17,0,0,1-7.15,7.05,7.08,7.08,0,0,1-7.06-7.05A7.17,7.17,0,0,1,368.3,233.59Zm-16.81,10.83a7.08,7.08,0,0,1,7.06,7.06,7.17,7.17,0,0,1-7.06,7.16,7.26,7.26,0,0,1-7.15-7.16A7.17,7.17,0,0,1,351.49,244.42ZM341,260.53a7.17,7.17,0,0,1,7.16,7.06,7.26,7.26,0,0,1-7.16,7.15,7.17,7.17,0,0,1-7.06-7.15A7.08,7.08,0,0,1,341,260.53Zm8.15,26a7.08,7.08,0,0,1-7.06,7,7.17,7.17,0,0,1-7.16-7,7.26,7.26,0,0,1,7.16-7.16A7.17,7.17,0,0,1,349.11,286.48ZM612.07,716c-27.54,3.78-114.63-13.62-126.66,20.78-12.13-34.4-99.81-14-126.75-20.78-38.18-9.65-34.31-32.42-39.57-55.28,23.56,24.76,58.75,11.93,94.24,11.93,26.15,0,60.05-4,72.08,10.74,11.93-14.72,45.83-10.74,72-10.74,35.49,0,65.72,12.92,92.16-11.93C647.16,681.46,649.35,710.79,612.07,716ZM657.3,612.37c-.19,8.15-2.28,16.7-6.26,26.34-10.64,25.35-37.48,27.44-58.65,23.56-22.67-4-40.77-16.5-62.64-7.26-8,4.67-17.79,13.52-28.73,7.06-9.74-6.76-12-11-16-21.47-4.07,10-6.76,13.72-15.6,20.38-10.25,7.85-23.37.4-29.53-6-23.66-17.49-48.92,7.06-71.68,8.46-42.16,5.26-57.17-21.78-57-49.22.1-24,11.73-48.61,36-48.81C340,557,331.51,545,328.73,527.36c-7.85-47.91-2.69-77.84,40.56-121.58C360,401.7,348.21,393.25,339.57,374c15.11-9.14,17.09-13.91,17.4-15a54.15,54.15,0,0,1-16.51-51.7c1.19-5.27,3.58-8.55,7.16-11.92,2.58-1.2,7.56-2.59,9.35,1.29,4-4.87,10.93-5.07,14-.3,3.88-4.77,9.94-4.28,13.72,1,1.69-5.27,13.32-6.56,13.52,6.07,2.78-6.86,12.63-8.85,18-8.15-1.1,2.78-2.59,4.57-2.39,9.14.4,8.05-.1,15.61.3,23.07h6.06c.8-23.57,7.56-43.35,39.07-57.77,8.26-3.67,17.2-5.16,26.55-11.13,8.95,5.57,18,6.86,26.15,11.13,34.49,18.4,38.27,32.42,39.16,57.37l21.08,2.09c-1.19-6.86,1.6-9.25,9.55-16.21l-33.9-41.55,15-12.63,13,13.62c5.37-6.16,9-19.39,6.46-28.53-.59-3.58-.3-7.66-4.07-12,16.5,0,30.22,8.55,40.16,19.68C628.67,262.22,634,281,630.26,297.11c-10.93-9.94-25.25-10.63-38.87-5.86l6,8.55,10.83-7.26c2.49,4.28,6.46,6.56,5.57,12.33,7.76-3.08,16.31,4.27,12.33,9.94,8.84-2.88,11,4.57,10.14,7.56,4.87-.3,9.34,3.57,8,9,5.67-1.19,7.26,3.88,6.36,9.45-5.46,13.42-12,24.65-30.52,29.42l10.14,5c-5.76,15.51-16.1,28.84-27.63,33.21,23.36,22.07,37.57,49.61,38.57,95,.3,16.41-4.38,46.93-19.89,59C639.51,567.53,657.9,586.82,657.3,612.37Z"/><path class="cls-1" d="M512.05,578.06a7.06,7.06,0,1,0,7.06,7.07A7.08,7.08,0,0,0,512.05,578.06Z"/><path class="cls-1" d="M512,644.77a6.16,6.16,0,0,0-6.27,6.17,6.27,6.27,0,0,0,12.53,0A6.16,6.16,0,0,0,512,644.77Z"/><path class="cls-1" d="M512.05,627.77a7.06,7.06,0,1,0,7.06,7.06A7.08,7.08,0,0,0,512.05,627.77Z"/><path class="cls-1" d="M512.05,611.07a7.06,7.06,0,1,0,7.06,7.06A7.08,7.08,0,0,0,512.05,611.07Z"/><path class="cls-1" d="M512.05,594.57a7.06,7.06,0,1,0,7.06,7.06A7.08,7.08,0,0,0,512.05,594.57Z"/><path class="cls-1" d="M354,541.08c-4.18-1.09-7.16-11.93.4-14.51-4.48-2.39-6.37-8.25-1.2-14.42,2.69-4,6.67-2.68,10.44-3.88V493.76l26.05-.1c.6-10.64-1.49-31.91,8.25-45.73l-.79,48.81c2.29-3.88,10-5.76,14.51-4.17l-.59,42.95c16.2-19.39,38.37-38.38,60.74-47.72-10.34-8.26-14.12-17.8-14.41-59.06l-13.22,13.32-17-10,16-30.12c-4.37-3.28-7.16-4.77-11.73-10.74C412.64,394,399.61,398.22,383,408c-27.44,19.19-44.64,49-47.52,77.65-.1,24.65,1.49,48.51,16,66.81C350.3,549,347.62,541.78,354,541.08Zm68.4-77.94a7.17,7.17,0,0,1,7.06,7.16,7.08,7.08,0,0,1-7.06,7.05,7.17,7.17,0,0,1-7.16-7.05A7.26,7.26,0,0,1,422.38,463.14Z"/><path class="cls-1" d="M381.12,557.19H362.73c-9.35-.4-6.46,10.14.69,9.34h18.1C388,567.63,390.17,556.1,381.12,557.19Z"/><path class="cls-1" d="M449.22,626.18c-4.87-3.47-5.26-13.22-.3-16.7-4.67-4.67-5.57-11.24,0-16-2.28-1.1-4.07-2.79-4.27-5.08-16.11,10.34-40.16,5-54.08-3.38l-.1,18.3c-12.23-4-23.17-15.21-26.25-28.34-43.34-16.8-57.56,57.66-25.45,75.86,36,15,73-32.21,107.08-.8-.11-3.88,1.88-5.57,4-6.06C442.56,638.91,444.35,630.26,449.22,626.18Z"/><path class="cls-1" d="M426.36,382c-8.65-15.11-5.57-30.81-7.06-43.84-10.34-.19-17,.2-29.93,7.26s-25.54,23.07-38.57,29.13c-7.56,4.08,17.7,26.15,27.54,26.15C390.77,390.67,406.47,387.38,426.36,382Z"/><path class="cls-1" d="M368,316.9l.1-12c-.8-5.67-8.15-6.27-8.55.1V316.4C361.14,323.06,366.71,322.86,368,316.9Z"/><path class="cls-1" d="M354.78,318V304.67c-1.6-5.47-5.47-4.08-6.46,1.09-1,5.57-1.69,5.37-1.2,11.63C348.51,321.77,353.49,322.56,354.78,318Z"/><path class="cls-1" d="M363.62,352.69c8.65-8,28.44-25.25,41.66-25.25l-1.49-22.17-.2-.2c-5.37,3.87-5.67,8.35-6.86,14.91-.6,3-3.58,5-6.26,5.77-4.68-.4-6.37-1.89-7.76-5.27-.89,4.07-3.58,5-6.36,5.27-4.28-.2-4.87-.9-5.87-4.58-.79,3.88-4.27,3.88-6.86,4.77-4.77-.39-5-2-5.86-5.06-1.49,3.08-2.49,3.87-6,5.06-1.6-.39-2.59,1.3-5-2.18C347.52,331.61,352.39,347.12,363.62,352.69Z"/><path class="cls-1" d="M381.82,515.43h-18.4c-9.34-.3-6.45,10.14.7,9.45h18.1C388.68,525.87,390.87,514.44,381.82,515.43Z"/><path class="cls-1" d="M383.31,592.48V576l-9.54.19C375.16,584.13,376.15,586.52,383.31,592.48Z"/><path class="cls-1" d="M381.82,543.17h-18.4c-9.34-.3-6.45,10.14.7,9.44h18.1C388.68,553.71,390.87,542.17,381.82,543.17Z"/><rect class="cls-1" x="371.28" y="499.63" width="11.93" height="7.55"/><path class="cls-1" d="M381.82,529.45h-18.4c-9.34-.3-6.45,10.14.7,9.45h18.1C388.68,540,390.87,528.46,381.82,529.45Z"/><path class="cls-1" d="M605.91,873.86Q600.6,855.31,595.62,848c-2.67-3.9-5.73-5.35-9.21-4.36q-4.85,1.39-5.47,6.92-.69,5.85,2.93,18.49,4.54,15.84,8.84,23.67a24.6,24.6,0,0,0,3.55,5.18c2.32,2.28,4.84,3,7.53,2.26q6.83-1.95,5.2-12.89a111.51,111.51,0,0,0-3.08-13.4m9.5-11.15q5.34,18.62,3,28-2.86,11.48-14.41,14.78-11.15,3.19-18.76-4-6.27-5.91-11-22.43-3.75-13-3.28-21.15a22,22,0,0,1,4.43-12.78,20.23,20.23,0,0,1,10.75-7c7.11-2,12.87-1.36,17.23,2Q610.54,845.75,615.41,862.71ZM546.48,905a60.7,60.7,0,0,0,.8,10.93l-.52.74q-13.57.64-22.18,1.39c-6,.53-13.1,1.32-21.32,2.36l-.69-.53-.39-4.47,9.14-11.12q10.26-12.45,13.19-18.7a29.76,29.76,0,0,0,2.3-6.61,22.39,22.39,0,0,0,.3-6.21q-1-11.76-11.81-10.81a11.52,11.52,0,0,0-9.14,5.4c-.25,1.44-.66,4-1.28,7.56l-.49.53-2.81.25-.53-.45.38-16.6q5.64-6.74,16.74-7.71,9.87-.86,15.69,3.84,5.39,4.27,6.07,12.11a22.43,22.43,0,0,1-.22,6,30,30,0,0,1-5.28,11.66,171.18,171.18,0,0,1-10.83,13.36c-1.78,2.07-4.45,5.13-8.08,9.18l.17.63,8.71-.76c2.51-.22,4.92-.46,7.16-.73l8.5-1c2.15-.25,4-.5,5.63-.77Zm-89.85-31.17c.53-6.07,0-10.65-1.47-13.71s-3.8-4.74-6.86-5q-5.67-.5-8.21,5.48a24.76,24.76,0,0,0-1.75,7.67c-.45,5.09.13,9.07,1.77,12a8.3,8.3,0,0,0,6.84,4.48c3.88.34,6.61-1.17,8.23-4.49A19.29,19.29,0,0,0,456.63,873.86Zm12.4,6.19q-1.12,13.05-6.57,21.19a39.42,39.42,0,0,1-14.28,13.18,32.91,32.91,0,0,1-18.84,3.85l-3.59-3.54,1.34-1.81a10.47,10.47,0,0,0,3.59.85,18.62,18.62,0,0,0,13.94-4.52,23.6,23.6,0,0,0,4.8-5.74c2.45-3.84,4.41-9.61,5.88-17.27q-7.94,6.09-8.76,6.12a20.31,20.31,0,0,1-7.09.57,13.52,13.52,0,0,1-10.27-5.75q-4-5.56-3.18-14.51,1.26-14.37,11.94-20.37a20.54,20.54,0,0,1,12-2.23q13.2,1.15,17.68,13.9C469.14,868.17,469.61,873.52,469,880.05Zm-84.35,28.49L384,909q-6.51-2.31-16.12-5.07-9.35-2.68-19.82-5.23l-.37-.67.83-2.9.7-.31c1.68.27,3.3.58,4.84.88a22.8,22.8,0,0,0,5.47.69,3.45,3.45,0,0,0,1.88-1.35c1-1.33,3-7.25,6.06-17.8l3.39-11.82c1-3.55,2.24-8,3.67-13.53l.94-3.59c.46-1.59.34-2.46-.33-2.66a13,13,0,0,0-3.11.29c-4.89.75-9.13,1.43-12.66,2.07l-.47-.49a60.6,60.6,0,0,0,.72-6.32l.16-.37q14.16.06,32.14-1.52l.79,1c-.67,1.82-1.62,4.55-2.9,8.16-.5,1.35-1.67,5.07-3.51,11.12l-5.48,18.61q-5.74,20-5.5,21.69a2.15,2.15,0,0,0,1,1.74A60.32,60.32,0,0,0,385,905l.49.64Z"/></g></g></svg>