<?xml version="1.0" encoding="iso-8859-1"?>
<!-- Uploaded to: SVG Repo, www.svgrepo.com, Generator: SVG Repo Mixer Tools -->
<svg height="800px" width="800px" version="1.1" id="Layer_1" xmlns="http://www.w3.org/2000/svg" xmlns:xlink="http://www.w3.org/1999/xlink" 
	 viewBox="0 0 505.173 505.173" xml:space="preserve">
<g transform="translate(1 1)">
	<path style="fill:#AAB1BA;" d="M498.2,499.053H336.067c8.533-25.6,23.893-34.133,42.667-34.133h85.333
		C482.84,464.92,498.2,480.28,498.2,499.053z M336.067,499.053H165.4c8.533-25.6,23.893-34.133,42.667-34.133H293.4
		C312.173,464.92,327.533,473.453,336.067,499.053z M165.4,499.053H3.267c0-18.773,15.36-34.133,34.133-34.133h85.333
		C141.507,464.92,156.867,473.453,165.4,499.053z"/>
	<path style="fill:#FFD0A1;" d="M319,97.987v17.067c0,4.267-3.413,8.533-8.533,8.533c0,17.067-8.533,34.133-8.533,34.133
		c-8.533,17.067-17.92,34.133-51.2,34.133s-42.667-17.067-51.2-34.133c0,0-8.533-17.067-8.533-34.133
		c-5.12,0-8.533-4.267-8.533-8.533V97.987c0-4.267,3.413-8.533,8.533-8.533V80.92c0-23.893,18.773-42.667,42.667-42.667H267.8
		c23.893,0,42.667,18.773,42.667,42.667v8.533C315.587,89.453,319,93.72,319,97.987"/>
	<path style="fill:#FF7474;" d="M293.4,225.987c59.733,0,93.867,8.533,102.4,34.133l8.533,34.133H284.867l7.68-59.733L293.4,225.987
		z M208.067,225.987l0.853,8.533l7.68,59.733H97.133l8.533-34.133C114.2,234.52,148.333,225.987,208.067,225.987z"/>
	<path style="fill:#FFD0A1;" d="M293.4,362.52v25.6c0,23.893-18.773,42.667-42.667,42.667s-42.667-18.773-42.667-42.667v-25.6
		c0-18.773,15.36-34.133,34.133-34.133h17.067C278.04,328.387,293.4,343.747,293.4,362.52z M464.067,362.52v25.6
		c0,23.893-18.773,42.667-42.667,42.667s-42.667-18.773-42.667-42.667v-25.6c0-18.773,15.36-34.133,34.133-34.133h17.067
		C448.707,328.387,464.067,343.747,464.067,362.52z M122.733,362.52v25.6c0,23.893-18.773,42.667-42.667,42.667
		S37.4,412.013,37.4,388.12v-25.6c0-18.773,15.36-34.133,34.133-34.133H88.6C107.373,328.387,122.733,343.747,122.733,362.52z"/>
	<path style="fill:#AAB1BA;" d="M319,115.053V97.987c0-4.267-3.413-8.533-8.533-8.533V80.92c0-23.893-18.773-42.667-42.667-42.667
		h-34.133C209.773,38.253,191,57.027,191,80.92v8.533c-5.12,0-8.533,4.267-8.533,8.533v17.067c0,4.267,3.413,8.533,8.533,8.533
		c0,17.067,8.533,34.133,8.533,34.133c8.533,17.067,17.92,34.133,51.2,34.133s42.667-17.067,51.2-34.133
		c0,0,8.533-17.067,8.533-34.133C315.587,123.587,319,119.32,319,115.053L319,115.053z M210.627,234.52h-0.853l-0.853-8.533
		c-59.733,0-93.867,8.533-102.4,34.133l-8.533,34.133H38.253c-18.773,0-34.133-15.36-34.133-34.133V38.253
		C4.12,19.48,19.48,4.12,38.253,4.12H464.92c18.773,0,34.133,15.36,34.133,34.133V260.12c0,18.773-15.36,34.133-34.133,34.133
		h-59.733l-8.533-34.133c-8.533-25.6-42.667-34.133-102.4-34.133l-0.853,8.533h-0.853H260.12c0-4.267-3.413-8.533-8.533-8.533
		c-5.12,0-8.533,4.267-8.533,8.533H210.627z"/>
	<path style="fill:#ECF4F7;" d="M292.547,234.52l-7.68,59.733h-34.133v-51.2c5.12,0,8.533-3.413,8.533-8.533h32.427H292.547z
		 M250.733,243.053v51.2H216.6l-7.68-59.733h0.853h31.573C242.2,238.787,245.613,243.053,250.733,243.053z"/>
</g>
<path style="fill:#51565F;" d="M499.2,504.32c-2.56,0-4.267-1.707-4.267-4.267c0-16.213-13.653-29.867-29.867-29.867h-85.333
	c-19.627,0-31.573,10.24-38.4,31.573c-0.853,3.413-6.827,3.413-7.68,0c-6.827-21.333-19.627-31.573-38.4-31.573H209.92
	c-19.627,0-31.573,10.24-38.4,31.573c-0.853,3.413-6.827,3.413-7.68,0c-6.827-21.333-19.627-31.573-38.4-31.573H40.107
	c-16.213,0-29.867,13.653-29.867,29.867c0,2.56-1.707,4.267-4.267,4.267s-4.267-1.707-4.267-4.267c0-21.333,17.067-38.4,38.4-38.4
	h85.333c19.627,0,34.133,8.533,42.667,27.307c8.533-17.92,23.04-27.307,42.667-27.307h85.333c19.627,0,34.133,8.533,42.667,27.307
	c8.533-17.92,23.04-27.307,42.667-27.307h85.333c21.333,0,38.4,17.067,38.4,38.4C503.467,502.613,501.76,504.32,499.2,504.32z
	 M422.4,436.053c-25.6,0-46.933-21.333-46.933-46.933v-25.6c0-21.333,17.067-38.4,38.4-38.4h17.067c21.333,0,38.4,17.067,38.4,38.4
	v25.6C469.333,414.72,448,436.053,422.4,436.053z M413.867,333.653c-16.213,0-29.867,13.653-29.867,29.867v25.6
	c0,21.333,17.067,38.4,38.4,38.4s38.4-17.067,38.4-38.4v-25.6c0-16.213-13.653-29.867-29.867-29.867H413.867z M251.733,436.053
	c-25.6,0-46.933-21.333-46.933-46.933v-25.6c0-21.333,17.067-38.4,38.4-38.4h17.067c21.333,0,38.4,17.067,38.4,38.4v25.6
	C298.667,414.72,277.333,436.053,251.733,436.053z M243.2,333.653c-16.213,0-29.867,13.653-29.867,29.867v25.6
	c0,21.333,17.067,38.4,38.4,38.4s38.4-17.067,38.4-38.4v-25.6c0-16.213-13.653-29.867-29.867-29.867H243.2z M81.067,436.053
	c-25.6,0-46.933-21.333-46.933-46.933v-25.6c0-21.333,17.067-38.4,38.4-38.4H89.6c21.333,0,38.4,17.067,38.4,38.4v25.6
	C128,414.72,106.667,436.053,81.067,436.053z M72.533,333.653c-16.213,0-29.867,13.653-29.867,29.867v25.6
	c0,21.333,17.067,38.4,38.4,38.4s38.4-17.067,38.4-38.4v-25.6c0-16.213-13.653-29.867-29.867-29.867H72.533z M465.067,299.52H38.4
	c-21.333,0-38.4-17.067-38.4-38.4V39.253c0-21.333,17.067-38.4,38.4-38.4h426.667c21.333,0,38.4,17.067,38.4,38.4V261.12
	C503.467,282.453,486.4,299.52,465.067,299.52z M38.4,9.387c-16.213,0-29.867,13.653-29.867,29.867V261.12
	c0,16.213,13.653,29.867,29.867,29.867h426.667c16.213,0,29.867-13.653,29.867-29.867V39.253c0-16.213-13.653-29.867-29.867-29.867
	H38.4z M396.8,265.387c-1.707,0-3.413-0.853-4.267-2.56c-6.827-21.333-35.84-30.72-94.72-30.72l-4.267,30.72
	c0,2.56-2.56,4.267-5.12,3.413c-2.56,0-4.267-2.56-3.413-5.12l4.267-34.133c0-2.56,2.56-3.413,5.12-3.413
	c64.853,0,96.427,11.093,104.96,36.693C400.213,262.827,398.507,264.533,396.8,265.387
	C397.653,265.387,397.653,265.387,396.8,265.387z M106.667,265.387c-0.853,0-0.853,0-1.707,0c-2.56-0.853-3.413-3.413-2.56-5.12
	c8.533-25.6,40.107-36.693,104.96-36.693c2.56,0,5.12,0.853,5.12,3.413l4.267,34.133c0,2.56-1.707,4.267-3.413,5.12
	c-2.56,0-4.267-1.707-5.12-3.413l-4.267-30.72c-58.88,0-87.893,9.387-94.72,30.72C110.08,264.533,108.373,265.387,106.667,265.387z
	 M251.733,265.387c-2.56,0-4.267-1.707-4.267-4.267v-13.653c-5.12-1.707-8.533-6.827-8.533-11.947c0-6.827,5.973-12.8,12.8-12.8
	c6.827,0,12.8,5.973,12.8,12.8c0,5.973-3.413,10.24-8.533,11.947v13.653C256,263.68,254.293,265.387,251.733,265.387z
	 M251.733,231.253c-2.56,0-4.267,1.707-4.267,4.267c0,2.56,1.707,4.267,4.267,4.267c2.56,0,4.267-1.707,4.267-4.267
	C256,232.96,254.293,231.253,251.733,231.253z M251.733,197.12c-36.693,0-46.933-21.333-54.613-36.693
	c0-0.853-7.68-16.213-8.533-32.427c-5.12-1.707-8.533-6.827-8.533-11.947V98.987c0-5.973,3.413-10.24,8.533-11.947v-5.12
	c0-25.6,21.333-46.933,46.933-46.933h34.133c25.6,0,46.933,21.333,46.933,46.933v5.12c5.12,1.707,8.533,6.827,8.533,11.947v17.067
	c0,5.973-3.413,10.24-8.533,11.947c-0.853,16.213-8.533,31.573-8.533,32.427C298.667,175.787,288.427,197.12,251.733,197.12z
	 M234.667,43.52c-21.333,0-38.4,17.067-38.4,38.4v8.533c0,2.56-1.707,4.267-4.267,4.267s-4.267,1.707-4.267,4.267v17.067
	c0,2.56,1.707,4.267,4.267,4.267s4.267,1.707,4.267,4.267c0,16.213,7.68,32.427,7.68,32.427
	c9.387,18.773,17.92,31.573,47.787,31.573c29.013,0,38.4-12.8,47.787-31.573c0,0,7.68-16.213,7.68-32.427
	c0-2.56,1.707-4.267,4.267-4.267s4.267-1.707,4.267-4.267V98.987c0-2.56-1.707-4.267-4.267-4.267s-4.267-1.707-4.267-4.267V81.92
	c0-21.333-17.067-38.4-38.4-38.4H234.667z M277.333,111.787H268.8c-2.56,0-4.267-1.707-4.267-4.267c0-2.56,1.707-4.267,4.267-4.267
	h8.533c2.56,0,4.267,1.707,4.267,4.267C281.6,110.08,279.893,111.787,277.333,111.787z M234.667,111.787h-8.533
	c-2.56,0-4.267-1.707-4.267-4.267c0-2.56,1.707-4.267,4.267-4.267h8.533c2.56,0,4.267,1.707,4.267,4.267
	C238.933,110.08,237.227,111.787,234.667,111.787z"/>
</svg>